{
    "asset" : {
        "generator" : "Khronos glTF Blender I/O v1.1.45",
        "version" : "2.0"
    },
    "scene" : 0,
    "scenes" : [
        {
            "name" : "Scene",
            "nodes" : [
                0,
                1
            ]
        }
    ],
    "nodes" : [
        {
            "mesh" : 0,
            "name" : "Knob",
            "translation" : [
                0,
                -0.0005989389028400183,
                0
            ]
        },
        {
            "mesh" : 1,
            "name" : "Signal",
            "rotation" : [
                0,
                0,
                -0.18494755029678345,
                0.9827483892440796
            ],
            "scale" : [
                0.5187458395957947,
                0.049752071499824524,
                0.13343781232833862
            ],
            "translation" : [
                0.03125685825943947,
                0.010821222327649593,
                5.674453859683126e-05
            ]
        }
    ],
    "meshes" : [
        {
            "name" : "Cube.001",
            "primitives" : [
                {
                    "attributes" : {
                        "POSITION" : 0,
                        "NORMAL" : 1,
                        "TEXCOORD_0" : 2
                    },
                    "indices" : 3
                }
            ]
        },
        {
            "name" : "Cube.002",
            "primitives" : [
                {
                    "attributes" : {
                        "POSITION" : 4,
                        "NORMAL" : 5,
                        "TEXCOORD_0" : 6
                    },
                    "indices" : 7
                }
            ]
        }
    ],
    "accessors" : [
        {
            "bufferView" : 0,
            "componentType" : 5126,
            "count" : 454,
            "max" : [
                0.05000000074505806,
                0.018652357161045074,
                0.05000000074505806
            ],
            "min" : [
                -0.05000000074505806,
                -0.001901061274111271,
                -0.05000000074505806
            ],
            "type" : "VEC3"
        },
        {
            "bufferView" : 1,
            "componentType" : 5126,
            "count" : 454,
            "type" : "VEC3"
        },
        {
            "bufferView" : 2,
            "componentType" : 5126,
            "count" : 454,
            "type" : "VEC2"
        },
        {
            "bufferView" : 3,
            "componentType" : 5123,
            "count" : 468,
            "type" : "SCALAR"
        },
        {
            "bufferView" : 4,
            "componentType" : 5126,
            "count" : 24,
            "max" : [
                0.02500000037252903,
                0.02500000037252903,
                0.02500000037252903
            ],
            "min" : [
                -0.02500000037252903,
                -0.02500000037252903,
                -0.02500000037252903
            ],
            "type" : "VEC3"
        },
        {
            "bufferView" : 5,
            "componentType" : 5126,
            "count" : 24,
            "type" : "VEC3"
        },
        {
            "bufferView" : 6,
            "componentType" : 5126,
            "count" : 24,
            "type" : "VEC2"
        },
        {
            "bufferView" : 7,
            "componentType" : 5123,
            "count" : 36,
            "type" : "SCALAR"
        }
    ],
    "bufferViews" : [
        {
            "buffer" : 0,
            "byteLength" : 5448,
            "byteOffset" : 0
        },
        {
            "buffer" : 0,
            "byteLength" : 5448,
            "byteOffset" : 5448
        },
        {
            "buffer" : 0,
            "byteLength" : 3632,
            "byteOffset" : 10896
        },
        {
            "buffer" : 0,
            "byteLength" : 936,
            "byteOffset" : 14528
        },
        {
            "buffer" : 0,
            "byteLength" : 288,
            "byteOffset" : 15464
        },
        {
            "buffer" : 0,
            "byteLength" : 288,
            "byteOffset" : 15752
        },
        {
            "buffer" : 0,
            "byteLength" : 192,
            "byteOffset" : 16040
        },
        {
            "buffer" : 0,
            "byteLength" : 72,
            "byteOffset" : 16232
        }
    ],
    "buffers" : [
        {
            "byteLength" : 16304,
            "uri" : "Rotary_switch.bin"
        }
    ]
}
