{
    "asset" : {
        "generator" : "Khronos glTF Blender I/O v1.1.45",
        "version" : "2.0"
    },
    "scene" : 0,
    "scenes" : [
        {
            "name" : "Scene",
            "nodes" : [
                0,
                1,
                2
            ]
        }
    ],
    "nodes" : [
        {
            "name" : "Light",
            "rotation" : [
                -0.40007418394088745,
                0.06532514840364456,
                -0.5836619138717651,
                -0.7035709619522095
            ]
        },
        {
            "mesh" : 0,
            "name" : "Earth",
            "scale" : [
                6.349999904632568,
                6.349999904632568,
                6.349999904632568
            ]
        },
        {
            "mesh" : 1,
            "name" : "Moon",
            "scale" : [
                1.784000039100647,
                1.784000039100647,
                1.784000039100647
            ],
            "translation" : [
                384,
                0,
                0
            ]
        }
    ],
    "materials" : [
        {
            "doubleSided" : true,
            "emissiveFactor" : [
                0,
                0,
                0
            ],
            "name" : "Material.001",
            "pbrMetallicRoughness" : {
                "baseColorTexture" : {
                    "index" : 0,
                    "texCoord" : 0
                },
                "metallicFactor" : 0,
                "roughnessFactor" : 0.5
            }
        },
        {
            "doubleSided" : true,
            "emissiveFactor" : [
                0,
                0,
                0
            ],
            "name" : "Material.002",
            "pbrMetallicRoughness" : {
                "baseColorTexture" : {
                    "index" : 1,
                    "texCoord" : 0
                },
                "metallicFactor" : 0,
                "roughnessFactor" : 0.5
            }
        }
    ],
    "meshes" : [
        {
            "name" : "Sphere",
            "primitives" : [
                {
                    "attributes" : {
                        "POSITION" : 0,
                        "NORMAL" : 1,
                        "TEXCOORD_0" : 2
                    },
                    "indices" : 3,
                    "material" : 0
                }
            ]
        },
        {
            "name" : "Sphere.001",
            "primitives" : [
                {
                    "attributes" : {
                        "POSITION" : 4,
                        "NORMAL" : 5,
                        "TEXCOORD_0" : 6
                    },
                    "indices" : 7,
                    "material" : 1
                }
            ]
        }
    ],
    "textures" : [
        {
            "source" : 0
        },
        {
            "source" : 1
        }
    ],
    "images" : [
        {
            "mimeType" : "image/jpeg",
            "name" : "8k_earth_daymap",
            "uri" : "8k_earth_daymap.jpg"
        },
        {
            "mimeType" : "image/jpeg",
            "name" : "8k_moon",
            "uri" : "8k_moon.jpg"
        }
    ],
    "accessors" : [
        {
            "bufferView" : 0,
            "componentType" : 5126,
            "count" : 126976,
            "max" : [
                0.9872313737869263,
                0.9975767135620117,
                0.9872314929962158
            ],
            "min" : [
                -0.9872310161590576,
                -0.9975767135620117,
                -0.9872310161590576
            ],
            "type" : "VEC3"
        },
        {
            "bufferView" : 1,
            "componentType" : 5126,
            "count" : 126976,
            "type" : "VEC3"
        },
        {
            "bufferView" : 2,
            "componentType" : 5126,
            "count" : 126976,
            "type" : "VEC2"
        },
        {
            "bufferView" : 3,
            "componentType" : 5125,
            "count" : 190464,
            "type" : "SCALAR"
        },
        {
            "bufferView" : 4,
            "componentType" : 5126,
            "count" : 126976,
            "max" : [
                0.9872313737869263,
                0.9975767135620117,
                0.9872314929962158
            ],
            "min" : [
                -0.9872310161590576,
                -0.9975767135620117,
                -0.9872310161590576
            ],
            "type" : "VEC3"
        },
        {
            "bufferView" : 5,
            "componentType" : 5126,
            "count" : 126976,
            "type" : "VEC3"
        },
        {
            "bufferView" : 6,
            "componentType" : 5126,
            "count" : 126976,
            "type" : "VEC2"
        },
        {
            "bufferView" : 7,
            "componentType" : 5125,
            "count" : 190464,
            "type" : "SCALAR"
        }
    ],
    "bufferViews" : [
        {
            "buffer" : 0,
            "byteLength" : 1523712,
            "byteOffset" : 0
        },
        {
            "buffer" : 0,
            "byteLength" : 1523712,
            "byteOffset" : 1523712
        },
        {
            "buffer" : 0,
            "byteLength" : 1015808,
            "byteOffset" : 3047424
        },
        {
            "buffer" : 0,
            "byteLength" : 761856,
            "byteOffset" : 4063232
        },
        {
            "buffer" : 0,
            "byteLength" : 1523712,
            "byteOffset" : 4825088
        },
        {
            "buffer" : 0,
            "byteLength" : 1523712,
            "byteOffset" : 6348800
        },
        {
            "buffer" : 0,
            "byteLength" : 1015808,
            "byteOffset" : 7872512
        },
        {
            "buffer" : 0,
            "byteLength" : 761856,
            "byteOffset" : 8888320
        }
    ],
    "buffers" : [
        {
            "byteLength" : 9650176,
            "uri" : "EarthMoon.bin"
        }
    ]
}
